<svg width="44" height="44" viewBox="0 0 44 44" fill="none" xmlns="http://www.w3.org/2000/svg">
<rect x="0.5" y="0.5" width="43" height="43" rx="7.5" stroke="#E9E9E9"/>
<g clip-path="url(#clip0_7606_3570)">
<path d="M22 12C24.717 12 25.056 12.01 26.122 12.06C27.187 12.11 27.912 12.277 28.55 12.525C29.21 12.779 29.766 13.123 30.322 13.678C30.8305 14.1779 31.224 14.7826 31.475 15.45C31.722 16.087 31.89 16.813 31.94 17.878C31.987 18.944 32 19.283 32 22C32 24.717 31.99 25.056 31.94 26.122C31.89 27.187 31.722 27.912 31.475 28.55C31.2247 29.2178 30.8311 29.8226 30.322 30.322C29.822 30.8303 29.2173 31.2238 28.55 31.475C27.913 31.722 27.187 31.89 26.122 31.94C25.056 31.987 24.717 32 22 32C19.283 32 18.944 31.99 17.878 31.94C16.813 31.89 16.088 31.722 15.45 31.475C14.7823 31.2245 14.1775 30.8309 13.678 30.322C13.1694 29.8222 12.7759 29.2175 12.525 28.55C12.277 27.913 12.11 27.187 12.06 26.122C12.013 25.056 12 24.717 12 22C12 19.283 12.01 18.944 12.06 17.878C12.11 16.812 12.277 16.088 12.525 15.45C12.7752 14.7822 13.1688 14.1773 13.678 13.678C14.1777 13.1692 14.7824 12.7757 15.45 12.525C16.088 12.277 16.812 12.11 17.878 12.06C18.944 12.013 19.283 12 22 12ZM22 17C20.6739 17 19.4021 17.5268 18.4645 18.4645C17.5268 19.4021 17 20.6739 17 22C17 23.3261 17.5268 24.5979 18.4645 25.5355C19.4021 26.4732 20.6739 27 22 27C23.3261 27 24.5979 26.4732 25.5355 25.5355C26.4732 24.5979 27 23.3261 27 22C27 20.6739 26.4732 19.4021 25.5355 18.4645C24.5979 17.5268 23.3261 17 22 17ZM28.5 16.75C28.5 16.4185 28.3683 16.1005 28.1339 15.8661C27.8995 15.6317 27.5815 15.5 27.25 15.5C26.9185 15.5 26.6005 15.6317 26.3661 15.8661C26.1317 16.1005 26 16.4185 26 16.75C26 17.0815 26.1317 17.3995 26.3661 17.6339C26.6005 17.8683 26.9185 18 27.25 18C27.5815 18 27.8995 17.8683 28.1339 17.6339C28.3683 17.3995 28.5 17.0815 28.5 16.75ZM22 19C22.7956 19 23.5587 19.3161 24.1213 19.8787C24.6839 20.4413 25 21.2044 25 22C25 22.7956 24.6839 23.5587 24.1213 24.1213C23.5587 24.6839 22.7956 25 22 25C21.2044 25 20.4413 24.6839 19.8787 24.1213C19.3161 23.5587 19 22.7956 19 22C19 21.2044 19.3161 20.4413 19.8787 19.8787C20.4413 19.3161 21.2044 19 22 19Z" fill="#161616"/>
</g>
<defs>
<clipPath id="clip0_7606_3570">
<rect width="24" height="24" fill="white" transform="translate(10 10)"/>
</clipPath>
</defs>
</svg>
