<svg width="44" height="44" viewBox="0 0 44 44" fill="none" xmlns="http://www.w3.org/2000/svg">
<rect x="0.5" y="0.5" width="43" height="43" rx="7.5" stroke="#E9E9E9"/>
<g clip-path="url(#clip0_7606_3575)">
<path d="M31.543 16.498C32 18.28 32 22 32 22C32 22 32 25.72 31.543 27.502C31.289 28.487 30.546 29.262 29.605 29.524C27.896 30 22 30 22 30C22 30 16.107 30 14.395 29.524C13.45 29.258 12.708 28.484 12.457 27.502C12 25.72 12 22 12 22C12 22 12 18.28 12.457 16.498C12.711 15.513 13.454 14.738 14.395 14.476C16.107 14 22 14 22 14C22 14 27.896 14 29.605 14.476C30.55 14.742 31.292 15.516 31.543 16.498ZM20 25.5L26 22L20 18.5V25.5Z" fill="#161616"/>
</g>
<defs>
<clipPath id="clip0_7606_3575">
<rect width="24" height="24" fill="white" transform="translate(10 10)"/>
</clipPath>
</defs>
</svg>
