<svg width="44" height="44" viewBox="0 0 44 44" fill="none" xmlns="http://www.w3.org/2000/svg">
<rect width="44" height="44" rx="8" fill="#F4F5F8"/>
<g clip-path="url(#clip0_7606_378)">
<path d="M13.9998 16.4148L10.7568 13.1728L12.1718 11.7578L15.4138 15.0008H30.6558C30.8117 15.0008 30.9654 15.0372 31.1047 15.1072C31.244 15.1771 31.365 15.2787 31.4581 15.4037C31.5511 15.5287 31.6137 15.6738 31.6407 15.8273C31.6678 15.9808 31.6586 16.1385 31.6138 16.2878L29.2138 24.2878C29.1521 24.4939 29.0255 24.6746 28.853 24.803C28.6804 24.9315 28.471 25.0008 28.2558 25.0008H15.9998V27.0008H26.9998V29.0008H14.9998C14.7346 29.0008 14.4803 28.8955 14.2927 28.7079C14.1052 28.5204 13.9998 28.266 13.9998 28.0008V16.4148ZM15.9998 17.0008V23.0008H27.5118L29.3118 17.0008H15.9998ZM15.4998 33.0008C15.102 33.0008 14.7205 32.8428 14.4392 32.5615C14.1579 32.2802 13.9998 31.8986 13.9998 31.5008C13.9998 31.103 14.1579 30.7215 14.4392 30.4402C14.7205 30.1588 15.102 30.0008 15.4998 30.0008C15.8977 30.0008 16.2792 30.1588 16.5605 30.4402C16.8418 30.7215 16.9998 31.103 16.9998 31.5008C16.9998 31.8986 16.8418 32.2802 16.5605 32.5615C16.2792 32.8428 15.8977 33.0008 15.4998 33.0008ZM27.4998 33.0008C27.102 33.0008 26.7205 32.8428 26.4392 32.5615C26.1579 32.2802 25.9998 31.8986 25.9998 31.5008C25.9998 31.103 26.1579 30.7215 26.4392 30.4402C26.7205 30.1588 27.102 30.0008 27.4998 30.0008C27.8977 30.0008 28.2792 30.1588 28.5605 30.4402C28.8418 30.7215 28.9998 31.103 28.9998 31.5008C28.9998 31.8986 28.8418 32.2802 28.5605 32.5615C28.2792 32.8428 27.8977 33.0008 27.4998 33.0008Z" fill="#161616"/>
</g>
<defs>
<clipPath id="clip0_7606_378">
<rect width="24" height="24" fill="white" transform="translate(10 10)"/>
</clipPath>
</defs>
</svg>
