<svg width="44" height="44" viewBox="0 0 44 44" fill="none" xmlns="http://www.w3.org/2000/svg">
<rect width="44" height="44" rx="8" fill="#F4F5F8"/>
<g clip-path="url(#clip0_7606_383)">
<path d="M28.031 26.617L32.314 30.899L30.899 32.314L26.617 28.031C25.0237 29.3082 23.042 30.0029 21 30C16.032 30 12 25.968 12 21C12 16.032 16.032 12 21 12C25.968 12 30 16.032 30 21C30.0029 23.042 29.3082 25.0237 28.031 26.617ZM26.025 25.875C27.2941 24.5699 28.0029 22.8204 28 21C28 17.132 24.867 14 21 14C17.132 14 14 17.132 14 21C14 24.867 17.132 28 21 28C22.8204 28.0029 24.5699 27.2941 25.875 26.025L26.025 25.875Z" fill="#161616"/>
</g>
<defs>
<clipPath id="clip0_7606_383">
<rect width="24" height="24" fill="white" transform="translate(10 10)"/>
</clipPath>
</defs>
</svg>
